<?xml version="1.0" encoding="UTF-8" standalone="no"?>
<!-- Created with Inkscape (http://www.inkscape.org/) -->

<svg
   width="20mm"
   height="20mm"
   viewBox="0 0 20 20"
   version="1.1"
   id="svg5"
   inkscape:version="1.2.2 (b0a8486541, 2022-12-01)"
   sodipodi:docname="logo.svg"
   xml:space="preserve"
   inkscape:export-filename="logosmall.svg"
   inkscape:export-xdpi="500"
   inkscape:export-ydpi="500"
   xmlns:inkscape="http://www.inkscape.org/namespaces/inkscape"
   xmlns:sodipodi="http://sodipodi.sourceforge.net/DTD/sodipodi-0.dtd"
   xmlns="http://www.w3.org/2000/svg"
   xmlns:svg="http://www.w3.org/2000/svg"><sodipodi:namedview
     id="namedview7"
     pagecolor="#ffffff"
     bordercolor="#666666"
     borderopacity="1.0"
     inkscape:showpageshadow="2"
     inkscape:pageopacity="0.0"
     inkscape:pagecheckerboard="0"
     inkscape:deskcolor="#d1d1d1"
     inkscape:document-units="mm"
     showgrid="false"
     inkscape:zoom="9.9220476"
     inkscape:cx="37.794618"
     inkscape:cy="43.589793"
     inkscape:window-width="1920"
     inkscape:window-height="1011"
     inkscape:window-x="0"
     inkscape:window-y="0"
     inkscape:window-maximized="1"
     inkscape:current-layer="layer1" /><defs
     id="defs2" /><g
     inkscape:label="Layer 1"
     inkscape:groupmode="layer"
     id="layer1"><circle
       style="opacity:0.994783;fill:#000000;stroke:none;stroke-width:0.103484;stroke-linecap:round;stroke-linejoin:round;stroke-miterlimit:4;stroke-dasharray:none"
       id="path858"
       cx="10"
       cy="10"
       r="9.999999" /><path
       style="opacity:0.994783;fill:#ffffff;stroke:none;stroke-width:0.0660291;stroke-linecap:butt;stroke-linejoin:miter;stroke-miterlimit:4;stroke-dasharray:none;stroke-opacity:1"
       d="m 12.542367,4.8327951 c 0,0 -5.0682326,0.3738878 -6.9944171,3.9266194 -1.9261852,3.5527325 1.2684036,6.8575435 3.365012,7.3565805 l -0.3463381,1.658882 c 0,0 -4.4715621,-0.838228 -5.4134959,-5.408444 C 2.0191036,6.8642017 7.1405247,2.9625101 13.018644,2.8910827 Z"
       id="path1212"
       sodipodi:nodetypes="csccscc" /><path
       style="opacity:0.994783;fill:#ffffff;stroke:none;stroke-width:0.0660291;stroke-linecap:butt;stroke-linejoin:miter;stroke-miterlimit:4;stroke-dasharray:none;stroke-opacity:1"
       d="m 10.197072,15.345515 c 2.865495,0.199606 4.942502,-2.479573 4.942502,-2.479573 l -1.80733,0.01856 c -1.07375,1.044604 -3.150876,1.235725 -3.150876,1.235725 z"
       id="path1363"
       sodipodi:nodetypes="ccccc" /><path
       style="opacity:0.994783;fill:#ffffff;stroke:none;stroke-width:0.0660291;stroke-linecap:butt;stroke-linejoin:miter;stroke-miterlimit:4;stroke-dasharray:none;stroke-opacity:1"
       d="m 8.8227916,9.127464 c -0.7004398,1.798013 0.5965173,2.171572 1.4150064,2.465496 0.818488,0.293924 0.964752,1.585672 -0.228113,1.845991 C 8.8168217,13.69927 8.3701135,12.662318 8.3701135,12.662318 l 0.00898,-0.885165 -0.6621112,0.01071 -0.027748,0.683538 c 0,0 -0.4803233,-0.472614 -0.2210308,-1.528472 C 7.769552,9.7158163 8.8227885,9.12746 8.8227885,9.12746 Z"
       id="path1365"
       sodipodi:nodetypes="cssccccsc" /><path
       style="opacity:0.994783;fill:#ffffff;stroke:none;stroke-width:0.0660291;stroke-linecap:butt;stroke-linejoin:miter;stroke-miterlimit:4;stroke-dasharray:none;stroke-opacity:1"
       d="m 12.641825,10.944025 3.690651,0.06029 c 0,0 0.885529,-2.0294125 -0.327621,-3.6309938 C 14.917113,5.9373023 13.439119,5.7037964 12.660157,5.7827176 l -0.428974,1.9147023 c 0,0 2.314393,0.4373926 2.439562,1.9610457 l -1.847987,0.033073 c 0,0 -0.356558,-1.5303649 -1.457459,-1.2220009 -1.1009,0.3083641 -1.197306,1.2468879 -0.346011,1.5811373 0.851294,0.334249 1.622537,0.89335 1.622537,0.89335 z"
       id="path1367"
       sodipodi:nodetypes="ccsccccssc" /></g></svg>
